HIERARCHY
ROOT Hips
{
	OFFSET 0.000000 0.000000 0.000000
	CHANNELS 6 Xposition Yposition Zposition Xrotation Yrotation Zrotation
	JOINT LeftUpLeg_virtual
	{
		OFFSET 0.000000 0.000000 0.000000
		CHANNELS 3 Xrotation Yrotation Zrotation
		JOINT LeftUpLeg
		{
			OFFSET 11.394100 -6.187798 -0.413800
			CHANNELS 3 Xrotation Yrotation Zrotation
			JOINT LeftLeg
			{
				OFFSET 0.430247 -32.302673 3.732800
				CHANNELS 3 Xrotation Yrotation Zrotation
				JOINT LeftFoot
				{
					OFFSET -0.430247 -48.264931 -6.423300
					CHANNELS 3 Xrotation Yrotation Zrotation
					JOINT LeftToeBase
					{
						OFFSET 4.230900 -16.068199 23.438400
						CHANNELS 3 Xrotation Yrotation Zrotation
						JOINT LeftToe_End
						{
							OFFSET 4.510700 0.695400 19.974600
							CHANNELS 3 Xrotation Yrotation Zrotation
							End Site
							{
								OFFSET 0 0 0
							}
						}
					}
				}
			}
		}
	}
	JOINT RightUpLeg_virtual
	{
		OFFSET 0.000000 0.000000 0.000000
		CHANNELS 3 Xrotation Yrotation Zrotation
		JOINT RightUpLeg
		{
			OFFSET -11.333700 -6.187798 -0.413800
			CHANNELS 3 Xrotation Yrotation Zrotation
			JOINT RightLeg
			{
				OFFSET -0.430392 -32.302628 3.733000
				CHANNELS 3 Xrotation Yrotation Zrotation
				JOINT RightFoot
				{
					OFFSET 0.430392 -48.264973 -6.423500
					CHANNELS 3 Xrotation Yrotation Zrotation
					JOINT RightToeBase
					{
						OFFSET -4.230900 -16.068199 23.438400
						CHANNELS 3 Xrotation Yrotation Zrotation
						JOINT RightToe_End
						{
							OFFSET -4.510700 0.695400 19.974600
							CHANNELS 3 Xrotation Yrotation Zrotation
							End Site
							{
								OFFSET 0 0 0
							}
						}
					}
				}
			}
		}
	}
	JOINT Spine_virtual
	{
		OFFSET 0.000000 0.000000 0.000000
		CHANNELS 3 Xrotation Yrotation Zrotation
		JOINT Spine
		{
			OFFSET -0.002400 12.777504 0.315300
			CHANNELS 3 Xrotation Yrotation Zrotation
			JOINT Spine1
			{
				OFFSET -0.002067 5.816869 0.032633
				CHANNELS 3 Xrotation Yrotation Zrotation
				JOINT Spine1_split
				{
					OFFSET -0.002067 5.816869 0.032633
					CHANNELS 3 Xrotation Yrotation Zrotation
					JOINT Spine2
					{
						OFFSET -0.002067 5.816869 0.032633
						CHANNELS 3 Xrotation Yrotation Zrotation
						JOINT Neck_virtual
						{
							OFFSET 0.000000 0.000000 0.000000
							CHANNELS 3 Xrotation Yrotation Zrotation
							JOINT Neck
							{
								OFFSET -0.003700 21.199493 -0.826900
								CHANNELS 3 Xrotation Yrotation Zrotation
								JOINT Head
								{
									OFFSET 0.000000 20.442200 4.834800
									CHANNELS 3 Xrotation Yrotation Zrotation
									JOINT HeadTop_End
									{
										OFFSET 0.000000 34.668396 4.968400
										CHANNELS 3 Xrotation Yrotation Zrotation
										End Site
										{
											OFFSET 0 0 0
										}
									}
								}
							}
						}
						JOINT LeftShoulder_virtual
						{
							OFFSET 0.000000 0.000000 0.000000
							CHANNELS 3 Xrotation Yrotation Zrotation
							JOINT LeftShoulder
							{
								OFFSET 3.288150 8.794197 -1.372250
								CHANNELS 3 Xrotation Yrotation Zrotation
								JOINT LeftShoulder_split
								{
									OFFSET 3.288150 8.794197 -1.372250
									CHANNELS 3 Xrotation Yrotation Zrotation
									JOINT LeftArm
									{
										OFFSET 11.953299 -2.279007 -0.146200
										CHANNELS 3 Xrotation Yrotation Zrotation
										JOINT LeftForeArm
										{
											OFFSET 18.448900 0.000000 0.000000
											CHANNELS 3 Xrotation Yrotation Zrotation
											JOINT LeftHand
											{
												OFFSET 29.527798 0.000000 0.000000
												CHANNELS 3 Xrotation Yrotation Zrotation
												End Site
												{
													OFFSET 0 0 0
												}
											}
										}
									}
								}
							}
						}
						JOINT RightShoulder_virtual
						{
							OFFSET 0.000000 0.000000 0.000000
							CHANNELS 3 Xrotation Yrotation Zrotation
							JOINT RightShoulder
							{
								OFFSET -3.249400 8.794197 -1.372250
								CHANNELS 3 Xrotation Yrotation Zrotation
								JOINT RightShoulder_split
								{
									OFFSET -3.249400 8.794197 -1.372250
									CHANNELS 3 Xrotation Yrotation Zrotation
									JOINT RightArm
									{
										OFFSET -11.953299 -2.279007 -0.146200
										CHANNELS 3 Xrotation Yrotation Zrotation
										JOINT RightForeArm
										{
											OFFSET -18.448900 0.000000 0.000000
											CHANNELS 3 Xrotation Yrotation Zrotation
											JOINT RightHand
											{
												OFFSET -29.527802 0.000000 0.000000
												CHANNELS 3 Xrotation Yrotation Zrotation
												End Site
												{
													OFFSET 0 0 0
												}
											}
										}
									}
								}
							}
						}
					}
				}
			}
		}
	}
}
MOTION
Frames: 10
Frame Time: 0.03333333
0.178441 82.662621 0.123363 0.000000 0.000000 0.000000 11.799092 2.949600 -1.332098 -64.625631 0.510483 5.482250 76.006249 7.870774 -0.627934 -22.206425 4.666648 -4.707309 -0.000003 -0.000006 -0.000001 0.000000 0.000000 0.000000 11.799092 2.949600 -1.332098 -62.178019 -13.471063 -7.911524 74.879924 -8.284954 -4.618804 -25.772377 -9.130436 3.328687 -0.000003 -0.000004 -0.000000 0.000000 0.000000 0.000000 11.799092 2.949600 -1.332098 9.878017 1.480337 1.207637 7.606523 0.771336 0.057330 0.000000 0.000000 0.000000 0.000000 0.000000 0.000000 7.597686 0.860255 0.038071 -11.217814 -1.906715 7.417777 -27.445210 2.029514 -5.944887 0.000000 0.000000 0.000000 7.597686 0.860255 0.038071 3.557352 -26.212553 4.772371 0.000000 0.000000 0.000000 -62.440271 -21.827230 -66.761711 179.999978 -70.691283 179.999964 0.000000 0.000000 0.000000 7.597686 0.860255 0.038071 1.196373 13.156130 10.917913 0.000000 0.000000 0.000000 -58.738835 43.556188 51.453246 -179.999896 73.727316 179.999896 0.000000 0.000000 0.000000 
0.173926 82.655998 0.118778 0.000000 0.000000 0.000000 11.783576 2.936900 -1.323134 -64.617783 0.512265 5.481392 76.017656 7.877279 -0.625539 -22.211420 4.674516 -4.714714 -0.000003 -0.000005 -0.000001 0.000000 0.000000 0.000000 11.783576 2.936900 -1.323134 -62.182855 -13.484492 -7.907825 74.894493 -8.281720 -4.639930 -25.774497 -9.126277 3.324551 -0.000003 -0.000006 -0.000000 0.000000 0.000000 0.000000 11.783576 2.936900 -1.323134 9.883991 1.468205 1.218464 7.610893 0.761037 0.063448 0.000000 0.000000 0.000000 0.000000 0.000000 0.000000 7.602198 0.849652 0.044324 -11.220969 -1.896257 7.395013 -27.466499 2.071049 -6.020810 0.000000 0.000000 0.000000 7.602198 0.849652 0.044324 3.557351 -26.212553 4.772372 0.000000 0.000000 0.000000 -62.430456 -21.781190 -66.726358 -179.999950 -70.681584 -179.999937 0.000000 0.000000 0.000000 7.602198 0.849652 0.044324 1.195829 13.196533 10.865736 0.000000 0.000000 0.000000 -58.712716 43.570750 51.388557 -179.999978 73.756139 -179.999991 0.000000 0.000000 0.000000 
0.170848 82.649628 0.115906 0.000000 0.000000 0.000000 11.775933 2.929740 -1.316804 -64.618412 0.520442 5.473759 76.027068 7.881885 -0.612545 -22.216329 4.683958 -4.720758 -0.000003 -0.000005 -0.000001 0.000000 0.000000 0.000000 11.775933 2.929740 -1.316804 -62.192854 -13.495455 -7.919702 74.909751 -8.273512 -4.646618 -25.778823 -9.113649 3.320876 -0.000003 -0.000005 -0.000000 0.000000 0.000000 0.000000 11.775933 2.929740 -1.316804 9.887598 1.454986 1.221567 7.612832 0.751159 0.066891 0.000000 0.000000 0.000000 0.000000 0.000000 0.000000 7.604218 0.840024 0.047794 -11.231270 -1.894200 7.400291 -27.497525 2.091313 -6.032921 0.000000 0.000000 0.000000 7.604218 0.840024 0.047794 3.557351 -26.212553 4.772372 0.000000 0.000000 0.000000 -62.444923 -21.769420 -66.717008 -179.999991 -70.639374 -179.999991 0.000000 0.000000 0.000000 7.604218 0.840024 0.047794 1.194096 13.211511 10.867396 0.000000 0.000000 0.000000 -58.732161 43.600222 51.374368 -179.999882 73.729447 179.999896 0.000000 0.000000 0.000000 
0.167646 82.643135 0.114372 0.000000 0.000000 0.000000 11.759293 2.919597 -1.309986 -64.610120 0.535006 5.468974 76.037866 7.881073 -0.595274 -22.221419 4.698728 -4.725148 -0.000003 -0.000005 -0.000001 0.000000 0.000000 0.000000 11.759293 2.919597 -1.309986 -62.191215 -13.498563 -7.930504 74.926875 -8.264392 -4.645733 -25.785001 -9.099787 3.316400 -0.000003 -0.000005 -0.000000 0.000000 0.000000 0.000000 11.759293 2.919597 -1.309986 9.886800 1.445910 1.221509 7.613315 0.745059 0.068408 0.000000 0.000000 0.000000 0.000000 0.000000 0.000000 7.604763 0.834138 0.049356 -11.228052 -1.899237 7.411029 -27.485142 2.074022 -6.008261 0.000000 0.000000 0.000000 7.604763 0.834138 0.049356 3.557349 -26.212550 4.772371 0.000000 0.000000 0.000000 -62.487119 -21.756068 -66.709679 179.999882 -70.676810 179.999896 0.000000 0.000000 0.000000 7.604763 0.834138 0.049356 1.191910 13.207265 10.903430 0.000000 0.000000 0.000000 -58.816555 43.618432 51.468303 -179.999964 73.789539 179.999950 0.000000 0.000000 0.000000 
0.163056 82.636620 0.114796 0.000000 0.000000 0.000000 11.730485 2.905702 -1.301640 -64.586378 0.545801 5.469175 76.050632 7.875213 -0.583805 -22.230266 4.717261 -4.729626 -0.000003 -0.000005 -0.000001 0.000000 0.000000 0.000000 11.730485 2.905702 -1.301640 -62.174365 -13.499416 -7.933096 74.944094 -8.256851 -4.646797 -25.793887 -9.091516 3.310194 -0.000003 -0.000004 -0.000000 0.000000 0.000000 0.000000 11.730485 2.905702 -1.301640 9.886969 1.444258 1.222817 7.616066 0.744130 0.068789 0.000000 0.000000 0.000000 0.000000 0.000000 0.000000 7.607525 0.833119 0.049812 -11.216390 -1.906089 7.412813 -27.424572 2.038055 -5.984114 0.000000 0.000000 0.000000 7.607525 0.833119 0.049812 3.557349 -26.212553 4.772371 0.000000 0.000000 0.000000 -62.543953 -21.738387 -66.699522 -179.999950 -70.710360 -179.999923 0.000000 0.000000 0.000000 7.607525 0.833119 0.049812 1.190307 13.212605 10.917317 0.000000 0.000000 0.000000 -58.936029 43.586579 51.625790 -179.999937 73.873031 179.999950 0.000000 0.000000 0.000000 
0.157977 82.632179 0.119774 0.000000 0.000000 0.000000 11.708461 2.891634 -1.292759 -64.557971 0.536778 5.464949 76.058596 7.872686 -0.584935 -22.246174 4.730362 -4.739557 -0.000003 -0.000004 -0.000001 0.000000 0.000000 0.000000 11.708461 2.891634 -1.292759 -62.157570 -13.501755 -7.930578 74.956408 -8.249146 -4.652542 -25.804364 -9.089111 3.304587 -0.000003 -0.000005 -0.000000 0.000000 0.000000 0.000000 11.708461 2.891634 -1.292759 9.897110 1.441737 1.226895 7.622578 0.741564 0.069634 0.000000 0.000000 0.000000 0.000000 0.000000 0.000000 7.614081 0.830442 0.050647 -11.216342 -1.901320 7.400203 -27.436655 2.039043 -5.965272 0.000000 0.000000 0.000000 7.614081 0.830442 0.050647 3.557348 -26.212553 4.772371 0.000000 0.000000 0.000000 -62.587270 -21.730675 -66.691709 179.999978 -70.528588 179.999978 0.000000 0.000000 0.000000 7.614081 0.830442 0.050647 1.189915 13.237435 10.886131 0.000000 0.000000 0.000000 -59.051698 43.535551 51.769897 179.999841 73.774144 -179.999841 0.000000 0.000000 0.000000 
0.154653 82.629013 0.128426 0.000000 0.000000 0.000000 11.696788 2.876267 -1.282421 -64.531238 0.514779 5.451539 76.062762 7.874868 -0.593295 -22.267393 4.744443 -4.752125 -0.000003 -0.000002 -0.000001 0.000000 0.000000 0.000000 11.696788 2.876267 -1.282421 -62.146457 -13.498871 -7.924264 74.965554 -8.242392 -4.661918 -25.815397 -9.084237 3.304103 -0.000003 -0.000005 -0.000000 0.000000 0.000000 0.000000 11.696788 2.876267 -1.282421 9.910567 1.434442 1.234345 7.626490 0.734719 0.072555 0.000000 0.000000 0.000000 0.000000 0.000000 0.000000 7.618088 0.823364 0.053500 -11.204840 -1.880055 7.372352 -27.559525 2.089916 -5.942703 0.000000 0.000000 0.000000 7.618088 0.823364 0.053500 3.557355 -26.212553 4.772371 0.000000 0.000000 0.000000 -62.590856 -21.691661 -66.657128 -179.999896 -70.243305 -179.999896 0.000000 0.000000 0.000000 7.618088 0.823364 0.053500 1.193016 13.265868 10.800706 0.000000 0.000000 0.000000 -59.132766 43.520227 51.872210 -179.999937 73.607883 179.999923 0.000000 0.000000 0.000000 
0.153208 82.623009 0.134830 0.000000 0.000000 0.000000 11.675705 2.859299 -1.268954 -64.502906 0.509770 5.438301 76.072577 7.868785 -0.593745 -22.286262 4.769957 -4.756194 -0.000003 -0.000005 -0.000001 0.000000 0.000000 0.000000 11.675705 2.859299 -1.268954 -62.131956 -13.484113 -7.914939 74.982397 -8.238433 -4.671222 -25.825567 -9.077707 3.308539 -0.000003 -0.000005 -0.000000 0.000000 0.000000 0.000000 11.675705 2.859299 -1.268954 9.917869 1.439340 1.237387 7.625969 0.738108 0.073725 0.000000 0.000000 0.000000 0.000000 0.000000 0.000000 7.617548 0.826536 0.054524 -11.170933 -1.867890 7.357098 -27.634940 2.110261 -5.916895 0.000000 0.000000 0.000000 7.617548 0.826536 0.054524 3.557350 -26.212553 4.772371 0.000000 0.000000 0.000000 -62.590317 -21.623836 -66.606120 -179.999937 -70.177762 -179.999937 0.000000 0.000000 0.000000 7.617548 0.826536 0.054524 1.198800 13.286722 10.688768 0.000000 0.000000 0.000000 -59.172299 43.503275 51.918385 -179.999950 73.623558 179.999937 0.000000 0.000000 0.000000 
0.150637 82.615120 0.134468 0.000000 0.000000 0.000000 11.643583 2.849874 -1.256504 -64.478803 0.535509 5.429740 76.084735 7.852686 -0.571521 -22.295213 4.794541 -4.752701 -0.000003 -0.000004 -0.000001 0.000000 0.000000 0.000000 11.643583 2.849874 -1.256504 -62.114389 -13.473388 -7.907555 75.003393 -8.237165 -4.681236 -25.833000 -9.080197 3.310850 -0.000003 -0.000005 -0.000000 0.000000 0.000000 0.000000 11.643583 2.849874 -1.256504 9.922649 1.460854 1.230707 7.627733 0.756096 0.071081 0.000000 0.000000 0.000000 0.000000 0.000000 0.000000 7.619104 0.844850 0.051574 -11.155174 -1.883453 7.377415 -27.615138 2.054276 -5.906317 0.000000 0.000000 0.000000 7.619104 0.844850 0.051574 3.557348 -26.212553 4.772371 0.000000 0.000000 0.000000 -62.619646 -21.601103 -66.593129 179.999882 -70.313116 179.999896 0.000000 0.000000 0.000000 7.619104 0.844850 0.051574 1.200993 13.293314 10.648213 0.000000 0.000000 0.000000 -59.175591 43.493265 51.879894 -179.999991 73.754398 179.999991 0.000000 0.000000 0.000000 
0.143296 82.609886 0.127132 0.000000 0.000000 0.000000 11.625033 2.864143 -1.251586 -64.478666 0.577832 5.411951 76.085917 7.846205 -0.518759 -22.289412 4.793551 -4.757449 -0.000003 -0.000004 -0.000001 0.000000 0.000000 0.000000 11.625033 2.864143 -1.251586 -62.111828 -13.485105 -7.911912 75.016535 -8.239803 -4.691246 -25.836850 -9.093085 3.305538 -0.000003 -0.000005 -0.000000 0.000000 0.000000 0.000000 11.625033 2.864143 -1.251586 9.926964 1.471827 1.225019 7.632023 0.766244 0.070595 0.000000 0.000000 0.000000 0.000000 0.000000 0.000000 7.623251 0.855661 0.050877 -11.175522 -1.905893 7.409701 -27.633117 1.996288 -5.939714 0.000000 0.000000 0.000000 7.623251 0.855661 0.050877 3.557345 -26.212550 4.772371 0.000000 0.000000 0.000000 -62.636625 -21.602471 -66.596530 -179.999909 -70.403500 -179.999896 0.000000 0.000000 0.000000 7.623251 0.855661 0.050877 1.197874 13.284181 10.705555 0.000000 0.000000 0.000000 -59.161172 43.568817 51.805103 179.999896 73.850642 -179.999896 0.000000 0.000000 0.000000 
